# xmcd
#
# Track frame offsets:
#   150
#   13795
#   27676
#   40975
#   51440
#   64557
#   79266
#   92213
#   104720
#   117014
#   129663
#   141081
#   155515
#   170353
#   184544
#   199341
#   213533
#   231461
#   244473
#   255658
#   268496
#
# Disc length: 3777 seconds
#
# Revision: 0
# Processed by: cddbd v1.5.1PL2 Copyright (c) Steve Scherf et al.
# Submitted via: uFREEDB ActiveX Control 1.5
#
DISCID=460ebf15
DTITLE=teodoro e sampaio - t.s
DYEAR=1900
DGENRE=Country
TTITLE0=teodoro e sampaio
TTITLE1=teodoro e sampaio
TTITLE2=teodoro e sampaio
TTITLE3=teodoro e sampaio
TTITLE4=teodoro e sampaio
TTITLE5=teodoro e sampaio
TTITLE6=teodoro e sampaio
TTITLE7=teodoro e sampaio
TTITLE8=teodoro e sampaio
TTITLE9=teodoro e sampaio
TTITLE10=teodoro e sampaio
TTITLE11=teodoro e sampaio
TTITLE12=teodoro e sampaio
TTITLE13=teodoro e sampaio
TTITLE14=teodoro e sampaio
TTITLE15=teodoro e sampaio
TTITLE16=teodoro e sampaio
TTITLE17=teodoro e sampaio
TTITLE18=teodoro e sampaio
TTITLE19=teodoro e sampaio
TTITLE20=teodoro e sampaio
EXTD=
EXTT0=
EXTT1=
EXTT2=
EXTT3=
EXTT4=
EXTT5=
EXTT6=
EXTT7=
EXTT8=
EXTT9=
EXTT10=
EXTT11=
EXTT12=
EXTT13=
EXTT14=
EXTT15=
EXTT16=
EXTT17=
EXTT18=
EXTT19=
EXTT20=
PLAYORDER=
